<svg width="2538" height="70" viewBox="0 0 2538 70" fill="none" xmlns="http://www.w3.org/2000/svg">
<path d="M788.779 62.3001C780.369 43.6801 769.569 39.7901 750.439 32.1501C769.809 23.8701 780.799 21.2701 789.169 1.24014L791.269 0.210144C791.859 -0.0798564 792.059 1.78014 791.869 2.42014C787.719 15.7201 777.789 23.4701 765.059 30.3401L943.659 30.4401C944.509 30.4401 945.699 30.4602 945.699 30.8402L945.699 33.8302L765.249 33.9401C777.469 40.8501 787.049 48.2601 791.689 61.2701C791.909 61.8901 791.889 63.0801 791.549 63.5701C791.129 64.1801 789.139 63.1501 788.769 62.3301L788.779 62.3001Z" fill="white"/>
<path d="M342.157 39.29L339.737 38.76C339.107 38.62 338.987 35.94 341.677 35.94L516.257 35.79C505.427 29.07 493.747 20.34 490.177 7.33996C490.027 6.77996 491.567 5.70996 492.367 5.45996C501.087 25.38 510.887 29.29 531.117 37.53C510.187 46.33 501.677 48.81 492.517 69.54C491.147 69.01 490.027 68.09 490.317 67.21C494.547 54.43 504.467 45.76 516.867 39.41L342.157 39.29Z" fill="white"/>
<path d="M1.1991 9.42011C0.749097 8.99011 -0.330879 7.02012 0.0991211 6.84012L2.38904 5.87012L48.5291 49.5601L47.1591 13.6501C47.1191 12.6801 47.9791 11.3201 48.2791 10.9101C48.5991 10.4701 50.2591 12.1501 50.2991 13.0601L52.3191 55.4701L10.269 55.4501C9.51904 55.4501 7.80903 54.7501 7.37903 54.5901C6.94903 54.4301 8.04907 52.4701 9.04907 52.4601L45.509 52.1101L1.1991 9.41012L1.1991 9.42011Z" fill="#E14E50"/>
<path d="M187.303 35.4612C186.153 35.4512 184.403 34.8412 184.363 34.1712C184.303 33.0812 185.683 31.9612 186.733 31.9512L209.723 31.7412L197.713 11.6612C197.923 10.9312 199.723 9.41116 200.373 9.46116L213.203 29.8612L225.313 10.2812C225.693 9.66117 227.363 9.43117 227.683 9.87117C228.093 10.4212 228.353 12.2212 227.993 12.8212L216.443 31.7012L239.253 31.9912C239.973 31.9912 241.383 32.5712 241.763 33.1212C242.143 33.6712 240.753 35.3712 239.723 35.3912L216.653 35.6812L228.653 55.6612C228.913 56.4312 226.573 58.1212 225.913 57.6812L213.213 37.4012L200.913 56.8812C200.563 57.2812 200.003 58.0212 199.723 57.7912L197.483 55.9512L209.643 35.6612L187.303 35.4512L187.303 35.4612Z" fill="white"/>
<path d="M625.089 31.99C625.089 49.6466 639.403 63.96 657.059 63.96C674.716 63.96 689.029 49.6466 689.029 31.99C689.029 14.3335 674.716 0.0200189 657.059 0.0200181C639.403 0.0200174 625.089 14.3335 625.089 31.99Z" fill="#DD4041"/>
<path d="M1804.78 62.3001C1796.37 43.6801 1785.57 39.7901 1766.44 32.1501C1785.81 23.8701 1796.8 21.2701 1805.17 1.24014L1807.27 0.210144C1807.86 -0.0798564 1808.06 1.78014 1807.87 2.42014C1803.72 15.7201 1793.79 23.4701 1781.06 30.3401L1959.66 30.4401C1960.51 30.4401 1961.7 30.4602 1961.7 30.8402L1961.7 33.8302L1781.25 33.9401C1793.47 40.8501 1803.05 48.2601 1807.69 61.2701C1807.91 61.8901 1807.89 63.0801 1807.55 63.5701C1807.13 64.1801 1805.14 63.1501 1804.77 62.3301L1804.78 62.3001Z" fill="white"/>
<path d="M1393.7 33.83L1391.28 33.3C1390.65 33.16 1390.53 30.48 1393.22 30.48L1567.8 30.33C1556.97 23.61 1545.29 14.88 1541.72 1.88C1541.57 1.32 1543.11 0.249998 1543.91 -1.69382e-06C1552.63 19.92 1562.43 23.83 1582.66 32.07C1561.73 40.87 1553.22 43.35 1544.06 64.08C1542.69 63.55 1541.57 62.63 1541.86 61.75C1546.09 48.97 1556.01 40.3 1568.41 33.95L1393.7 33.83Z" fill="white"/>
<path d="M2287.96 57.3399C2287.17 58.0799 2284.17 56.4799 2284.96 55.7299L2331.1 11.3599L2295.81 10.5499C2295.04 10.5299 2293.6 10.5499 2293.57 10.0399L2293.44 7.90992C2293.41 7.40992 2295.22 7.23992 2295.84 7.24992L2337.96 8.25992L2335.15 50.1399L2334.24 51.8999C2333.94 52.4699 2331.95 50.7299 2331.99 49.8399L2333.68 14.3799L2287.95 57.3399L2287.96 57.3399Z" fill="#DD4041"/>
<path d="M2034.31 33.8001C2033.21 33.7901 2032.01 33.8601 2032 33.4701L2031.92 30.5101L2057.39 30.1601L2045.91 11.5201C2045.55 10.9301 2045.35 9.62011 2045.35 9.09011C2045.35 8.56011 2047.86 8.14011 2048.19 8.65011L2060.81 28.1501L2073.8 8.23011C2074.34 7.40011 2076.95 9.44011 2076.68 10.2301L2064.24 30.1201L2086.86 30.4501C2087.71 30.4601 2089.08 31.1401 2089.56 31.5901C2090.04 32.0401 2088.45 33.7901 2087.59 33.8001L2064.3 34.1501L2076.38 53.9301C2076.88 54.7501 2074.72 56.6001 2074.02 56.5401L2060.69 35.9501L2048.51 55.2901C2048.17 55.8401 2046.42 56.0401 2046.04 55.6801C2045.54 55.2001 2045.37 53.4701 2045.84 52.7301L2057.48 34.1001L2034.33 33.8201L2034.31 33.8001Z" fill="white"/>
<path d="M1641.09 31.99C1641.09 49.6466 1655.4 63.96 1673.06 63.96C1690.72 63.96 1705.03 49.6466 1705.03 31.99C1705.03 14.3335 1690.72 0.0200189 1673.06 0.0200181C1655.4 0.0200174 1641.09 14.3335 1641.09 31.99Z" fill="#DD4041"/>
<path d="M1080.56 9.00996C1080.11 8.57996 1079.03 6.60996 1079.46 6.42996L1081.75 5.45996L1127.89 49.15L1126.52 13.24C1126.48 12.27 1127.34 10.91 1127.64 10.5C1127.96 10.06 1129.62 11.74 1129.66 12.65L1131.68 55.06L1089.63 55.04C1088.88 55.04 1087.17 54.34 1086.74 54.18C1086.31 54.02 1087.41 52.06 1088.41 52.05L1124.87 51.7L1080.56 8.99996L1080.56 9.00996Z" fill="#E14E50"/>
<path d="M1267.13 33.8801C1265.98 33.8701 1264.23 33.2601 1264.19 32.5901C1264.13 31.5001 1265.51 30.3801 1266.56 30.3701L1289.55 30.1601L1277.54 10.0801C1277.75 9.35011 1279.55 7.83011 1280.2 7.88011L1293.03 28.2801L1305.14 8.70011C1305.52 8.08011 1307.19 7.85011 1307.51 8.29011C1307.92 8.84011 1308.18 10.6401 1307.82 11.2401L1296.27 30.1201L1319.08 30.4101C1319.8 30.4101 1321.21 30.9901 1321.59 31.5401C1321.97 32.0901 1320.58 33.7901 1319.55 33.8101L1296.48 34.1001L1308.48 54.0801C1308.74 54.8501 1306.4 56.5401 1305.74 56.1001L1293.04 35.8201L1280.74 55.3001C1280.39 55.7001 1279.83 56.4401 1279.55 56.2101L1277.31 54.3701L1289.47 34.0801L1267.13 33.8701L1267.13 33.8801Z" fill="white"/>
</svg>
