<svg width="79" height="79" viewBox="0 0 79 79" fill="none" xmlns="http://www.w3.org/2000/svg">
<path d="M5.70379 38.319C5.31957 56.7133 19.9162 71.9328 38.3105 72.317C56.7049 72.7012 71.9243 58.1046 72.3085 39.7102C72.6927 21.3159 58.0961 6.09645 39.7018 5.71222C21.3074 5.328 6.08801 19.9246 5.70379 38.319Z" fill="#E14E50"/>
<path d="M43.6553 71.9894C25.4389 74.5572 8.59015 61.8715 6.02243 43.6551C3.45472 25.4388 16.1404 8.59003 34.3568 6.02231C52.5731 3.45459 69.4219 16.1403 71.9896 34.3566C74.5573 52.5729 61.8716 69.4217 43.6553 71.9894Z" fill="#E14E50" stroke="white" stroke-width="2.66689"/>
<path d="M25.7725 24.9966L50.9464 24.9966L50.9464 50.1705" stroke="#FFF9F9" stroke-width="5.03479"/>
<path d="M25.7729 37.584H38.3599V50.171" stroke="#FFF9F9" stroke-width="5.03479"/>
<circle cx="25.7727" cy="50.1706" r="3.77609" fill="white"/>
</svg>
