<svg width="79" height="79" viewBox="0 0 79 79" fill="none" xmlns="http://www.w3.org/2000/svg">
<path d="M5.70394 38.319C5.31972 56.7133 19.9163 71.9328 38.3107 72.317C56.705 72.7012 71.9245 58.1046 72.3087 39.7102C72.6929 21.3159 58.0963 6.09645 39.7019 5.71222C21.3076 5.328 6.08817 19.9246 5.70394 38.319Z" fill="#E14E50"/>
<path d="M43.6556 71.9894C25.4393 74.5572 8.59048 61.8715 6.02277 43.6551C3.45505 25.4388 16.1408 8.59003 34.3571 6.02231C52.5734 3.45459 69.4222 16.1403 71.9899 34.3566C74.5576 52.5729 61.8719 69.4217 43.6556 71.9894Z" fill="#E14E50" stroke="white" stroke-width="2.66689"/>
<path d="M32.8672 24.5976L17.5865 39.4655L32.4363 54.7275" stroke="white" stroke-width="2.9346"/>
<path d="M17.0007 39.3481L61.5728 39.2053" stroke="white" stroke-width="2.9346"/>
</svg>
