<svg width="61" height="52" viewBox="0 0 61 52" fill="none" xmlns="http://www.w3.org/2000/svg">
<path d="M4.44162 27.5012C3.29162 27.4912 1.54168 26.8812 1.50168 26.2112C1.44168 25.1212 2.82168 24.0012 3.87168 23.9912L26.8617 23.7812L14.8517 3.7012C15.0617 2.9712 16.8617 1.4512 17.5117 1.5012L30.3416 21.9012L42.4516 2.32121C42.8316 1.70121 44.5016 1.47121 44.8216 1.91121C45.2316 2.46121 45.4917 4.2612 45.1317 4.8612L33.5816 23.7412L56.3917 24.0312C57.1117 24.0312 58.5217 24.6112 58.9017 25.1612C59.2817 25.7112 57.8917 27.4112 56.8617 27.4312L33.7916 27.7212L45.7916 47.7012C46.0516 48.4712 43.7116 50.1612 43.0516 49.7212L30.3517 29.4412L18.0516 48.9212C17.7016 49.3212 17.1417 50.0612 16.8617 49.8312L14.6217 47.9912L26.7817 27.7012L4.44162 27.4912L4.44162 27.5012Z" fill="#DD4041" stroke="#DD4041" stroke-width="3"/>
</svg>
